# xmcd
#
# Track frame offsets:
#	183
#	17725
#	31190
#	45288
#	57710
#	70098
#	85930
#	98515
#	110633
#	122765
#	134778
#	146470
#	168613
#	182065
#	193763
#	208608
#
# Disc length: 2942 seconds
#
# Revision: 4
# Processed by: cddbd v1.5.2PL0 Copyright (c) Steve Scherf et al.
# Submitted via: audiograbber 1.83.01
#
DISCID=e60b7c10
DTITLE=Various Artist - Play Me The Blues... The Legendary Blues Singers [CD 5-10)
DYEAR=1991
DGENRE=Blues
TTITLE0=Mike Bloomfield - Jockey Blues
TTITLE1=Leadbelly - Backwater Blues
TTITLE2=Howlin' Wolf - Smokestack Lightning
TTITLE3=Sonny Boy Williamson  - Trust My Baby
TTITLE4=Little Walter - Last Night
TTITLE5=Johhny Winter - Self Destruction Blues
TTITLE6=Elmore James - I Need You
TTITLE7=Muddy Waters - Long Distance Call
TTITLE8=Memphis Slim - Trouble, Trouble
TTITLE9=Johhny Guitar Watson - One Room Country Shack
TTITLE10=Sonny Boy Williamson - Stop Crying
TTITLE11=John Mayall - A Big Man
TTITLE12=Howlin' Wolf - Tail Dragger
TTITLE13=Elmore James - Fine Little Mama
TTITLE14=John Lee Hooker - Sugar Mama
TTITLE15=Big Joe Williams - Ride In My New Car
EXTD=
EXTT0=
EXTT1=
EXTT2=
EXTT3=
EXTT4=
EXTT5=
EXTT6=
EXTT7=
EXTT8=
EXTT9=
EXTT10=
EXTT11=
EXTT12=
EXTT13=
EXTT14=
EXTT15=
PLAYORDER=
